<svg xmlns="http://www.w3.org/2000/svg" width="249.045" height="47.061" viewBox="0 0 249.045 47.061"><defs><style>.a{fill:#ef5713;}.a,.b{fill-rule:evenodd;}.b,.c{fill:#fff;}</style></defs><g transform="translate(-33.133 -17)"><path class="a" d="M56.664,17A23.531,23.531,0,1,1,33.133,40.531,23.531,23.531,0,0,1,56.664,17Z"/><path class="b" d="M56.867,44.069l.954-2.241H55.3l1.564,2.241Zm-.411-4.6,1.366,2.356,1-2.356Zm0,0,1.394-2.851H54.817l1.638,2.851ZM48.78,36.621l3.01,5.86,3.027-5.86Zm3.01,5.86-3.176,6.132h6.321l-1.509-2.949L51.79,42.48Zm1.554-3.008,1.506,3.278.451-.922h0l1.153-2.356Zm1.506,3.278-1.425,2.913h2.76L54.851,42.75Zm2.016,1.319-.68,1.594h1.795l-1.114-1.594Zm-1.926,4.543h2.595l-1.349-2.949-1.251,2.949Zm2.81,5.471-2.816-5.471L52.6,54.083Zm2.29-5.471h0l-.448-.642-1.612-2.306H62.1l-2.06,2.949Zm-7.827-16.47L56.5,26.557H48.982l3.233,5.586Zm4.932,0H52.214l2.6,4.478,2.33-4.478ZM48.78,36.621l3.434-4.478H46.48l2.3,4.478Zm0,0h-8.9l4.338,5.954,4.566-5.954Zm-.166,11.991L45.78,54.083H52.6l-3.986-5.471Zm-9.03,0h9.03l-4.4-6.037-4.63,6.037ZM50.7,58.54h5.148L52.6,54.083,50.7,58.54ZM63.215,44.069l-.954-2.241H64.78l-1.565,2.241Zm.411-4.6-1.365,2.356-1-2.356Zm0,0-1.394-2.851h3.033l-1.639,2.851ZM71.3,36.621l-3.01,5.86-3.027-5.86Zm-3.01,5.86,3.177,6.132H65.147l1.509-2.949,1.635-3.183Zm-1.554-3.008L65.231,42.75l-.451-.922h0l-1.154-2.356ZM65.231,42.75l1.425,2.913H63.9l1.335-2.913Zm-2.016,1.319.68,1.594H62.1l1.114-1.594Zm1.927,4.543h-2.6L63.9,45.664l1.251,2.949Zm-2.81,5.471,2.816-5.471,2.335,5.471Zm-2.29-14.611h1.215l-1.215-2.851h0l-1.215,2.851h1.215Zm0,6.191h0l.307-.531,1.912-3.3h-4.44l2.22,3.835h0Zm0,8.418h0l2.506-5.471H57.535l1.933,4.221.572,1.25h0Zm7.826-21.939-4.284-5.586H71.1l-3.233,5.586Zm-4.932,0h4.932l-2.6,4.478-2.329-4.478ZM71.3,36.621l-3.434-4.478H73.6l-2.3,4.478Zm0,0h8.9l-4.338,5.954L71.3,36.621Zm.167,11.991L74.3,54.083h-6.82l3.986-5.471Zm9.029,0H71.468l4.4-6.037,4.63,6.037ZM69.382,58.54H64.234l3.248-4.457,1.9,4.457ZM60.041,26.557h3.542l-3.542-4.619h0L56.5,26.557h3.543Zm0,5.586h2.894l-2.894-5.586h0l-2.894,5.586h2.894Zm0,4.478h2.191l-1.322-2.7-.869-1.776h0L57.85,36.621h2.191Zm0,21.918h0l.591-1.151,1.7-3.306h-4.58l2.29,4.457h0Zm0,5.754h0l4.193-5.753H55.848l4.193,5.753Z" transform="translate(-3.377 -2.585)"/><path class="b" d="M165.83,33.79h-5.062a2.947,2.947,0,0,0-2.939,2.939V64.851h5.061a2.947,2.947,0,0,0,2.939-2.939V33.79Zm8.455,0h17.148v5.19a2.82,2.82,0,0,1-2.813,2.81h-9.189v3.985h9.989v5.19a2.82,2.82,0,0,1-2.813,2.81h-7.176V62a2.862,2.862,0,0,1-2.855,2.852h-5.146V36.642a2.862,2.862,0,0,1,2.854-2.852Zm-22.056,0h-5.062a2.947,2.947,0,0,0-2.939,2.939V64.851h5.062a2.947,2.947,0,0,0,2.939-2.939V33.79Zm51.639,0h-5.146a2.862,2.862,0,0,0-2.855,2.852V64.851h14.906a2.82,2.82,0,0,0,2.813-2.81V56.85h-9.718V33.79Z" transform="translate(-58.157 -8.789)"/><path class="c" d="M461.562,73.145a2.157,2.157,0,0,1-.971-.209h0a1.635,1.635,0,0,1-.737-.726L452.3,57.977V72.033a1.114,1.114,0,0,1-1.111,1.111H449a1.115,1.115,0,0,1-1.111-1.111V50.745A1.114,1.114,0,0,1,449,49.634h2.309a2.438,2.438,0,0,1,1.29.271h0a1.729,1.729,0,0,1,.4.35h0a2.522,2.522,0,0,1,.283.418l.007.013,7.466,14.085V50.745a1.114,1.114,0,0,1,1.111-1.111h2.186a1.114,1.114,0,0,1,1.111,1.111V72.033a1.115,1.115,0,0,1-1.111,1.111Z" transform="translate(-217.119 -17.083)"/><path class="c" d="M374.613,73.145a2.156,2.156,0,0,1-.971-.209h0a1.632,1.632,0,0,1-.737-.726l-7.554-14.232V72.033a1.115,1.115,0,0,1-1.111,1.111H362.05a1.115,1.115,0,0,1-1.111-1.111V50.745a1.114,1.114,0,0,1,1.111-1.111h2.309a2.438,2.438,0,0,1,1.29.271h0a1.736,1.736,0,0,1,.395.35h0a2.522,2.522,0,0,1,.283.418l.007.013L373.8,64.771V50.745a1.114,1.114,0,0,1,1.111-1.111H377.1a1.114,1.114,0,0,1,1.111,1.111V72.033a1.115,1.115,0,0,1-1.111,1.111Z" transform="translate(-171.602 -17.083)"/><path class="b" d="M531,49.634h8.348a1.114,1.114,0,0,1,1.111,1.111v2.187a1.114,1.114,0,0,1-1.111,1.111h-7.209a1.211,1.211,0,0,0-1.208,1.208v3.935h8.417a1.114,1.114,0,0,1,1.111,1.111v2.187a1.114,1.114,0,0,1-1.111,1.111h-8.417v3.935a1.211,1.211,0,0,0,1.208,1.208h7.209a1.114,1.114,0,0,1,1.111,1.111v2.187a1.115,1.115,0,0,1-1.111,1.111H531a4.491,4.491,0,0,1-4.477-4.478V54.111A4.49,4.49,0,0,1,531,49.634Z" transform="translate(-258.285 -17.083)"/><path class="b" d="M313.769,49.634h8.349a1.114,1.114,0,0,1,1.111,1.111v2.187a1.114,1.114,0,0,1-1.111,1.111h-7.209A1.211,1.211,0,0,0,313.7,55.25v3.935h8.417a1.114,1.114,0,0,1,1.111,1.111v2.187a1.114,1.114,0,0,1-1.111,1.111H313.7v8.44a1.115,1.115,0,0,1-1.111,1.111H310.4a1.115,1.115,0,0,1-1.111-1.111V54.111a4.49,4.49,0,0,1,4.477-4.477Z" transform="translate(-144.566 -17.083)"/><path class="b" d="M414.4,61.847h-4.276l2.138-7.5,2.138,7.5Zm-5.75-10.3L402.883,71.8a.973.973,0,0,0,1.02,1.281h1.639a1.911,1.911,0,0,0,1.75-1.281l1.58-5.546h6.788l1.581,5.546a1.91,1.91,0,0,0,1.749,1.281h1.639a.973.973,0,0,0,1.02-1.281l-5.771-20.253c-.781-2.741-6.46-2.681-7.223,0Z" transform="translate(-193.535 -17.021)"/><path class="b" d="M345.066,50.745V72.033a1.115,1.115,0,0,0,1.111,1.111h2.187a1.114,1.114,0,0,0,1.111-1.111V50.745a1.114,1.114,0,0,0-1.111-1.111h-2.187a1.114,1.114,0,0,0-1.111,1.111Z" transform="translate(-163.293 -17.083)"/><path class="b" d="M503.579,49.633H499.16l-.068,0-.222,0a9.469,9.469,0,0,0-2.146.237,7.7,7.7,0,0,0-2.18.866,6.8,6.8,0,0,0-1.926,1.721,8.435,8.435,0,0,0-1.355,2.764,13.868,13.868,0,0,0-.512,3.961v4.412a13.614,13.614,0,0,0,.512,3.916,8.492,8.492,0,0,0,1.355,2.753A6.982,6.982,0,0,0,494.543,72a7.679,7.679,0,0,0,2.18.892,9.059,9.059,0,0,0,2.149.253l.22,0,.07,0h4.419a1.114,1.114,0,0,0,1.111-1.111V69.846a1.114,1.114,0,0,0-1.111-1.111H499.16l-.055,0-.2,0a3.455,3.455,0,0,1-1.884-.384,3.24,3.24,0,0,1-1.258-1.6,8.579,8.579,0,0,1-.493-3.16V59.182a9.968,9.968,0,0,1,.284-2.571,3.079,3.079,0,0,1,3.351-2.572h4.671a1.114,1.114,0,0,0,1.111-1.111V50.744a1.114,1.114,0,0,0-1.111-1.111Z" transform="translate(-239.558 -17.083)"/></g></svg>